<mxfile host="65bd71144e">
    <diagram id="uX4b3MiT4kQQcdeMV7dP" name="PÃ¡gina-1">
        <mxGraphModel dx="911" dy="373" grid="1" gridSize="10" guides="1" tooltips="1" connect="1" arrows="1" fold="1" page="1" pageScale="1" pageWidth="827" pageHeight="1169" math="0" shadow="0">
            <root>
                <mxCell id="0"/>
                <mxCell id="1" parent="0"/>
                <mxCell id="2" value="Wordpress" style="rounded=0;whiteSpace=wrap;html=1;" vertex="1" parent="1">
                    <mxGeometry x="140" y="250" width="120" height="60" as="geometry"/>
                </mxCell>
                <mxCell id="3" value="Arquitetura dos containers da aula do Fabricio Veronezi" style="text;strokeColor=none;fillColor=none;html=1;fontSize=24;fontStyle=1;verticalAlign=middle;align=center;" vertex="1" parent="1">
                    <mxGeometry x="290" y="90" width="320" height="40" as="geometry"/>
                </mxCell>
                <mxCell id="4" value="volume" style="shape=dataStorage;whiteSpace=wrap;html=1;fixedSize=1;" vertex="1" parent="1">
                    <mxGeometry x="160" y="360" width="100" height="80" as="geometry"/>
                </mxCell>
                <mxCell id="5" value="MariaDB" style="rounded=0;whiteSpace=wrap;html=1;" vertex="1" parent="1">
                    <mxGeometry x="420" y="250" width="120" height="60" as="geometry"/>
                </mxCell>
                <mxCell id="6" value="volume" style="shape=dataStorage;whiteSpace=wrap;html=1;fixedSize=1;" vertex="1" parent="1">
                    <mxGeometry x="440" y="360" width="100" height="80" as="geometry"/>
                </mxCell>
                <mxCell id="7" value="" style="endArrow=classic;startArrow=classic;html=1;exitX=0.5;exitY=0;exitDx=0;exitDy=0;entryX=0.5;entryY=1;entryDx=0;entryDy=0;" edge="1" parent="1" source="6" target="5">
                    <mxGeometry width="50" height="50" relative="1" as="geometry">
                        <mxPoint x="420" y="320" as="sourcePoint"/>
                        <mxPoint x="490" y="320" as="targetPoint"/>
                    </mxGeometry>
                </mxCell>
                <mxCell id="8" value="" style="endArrow=classic;startArrow=classic;html=1;exitX=0.5;exitY=0;exitDx=0;exitDy=0;entryX=0.5;entryY=1;entryDx=0;entryDy=0;" edge="1" parent="1" source="4" target="2">
                    <mxGeometry width="50" height="50" relative="1" as="geometry">
                        <mxPoint x="420" y="320" as="sourcePoint"/>
                        <mxPoint x="470" y="270" as="targetPoint"/>
                    </mxGeometry>
                </mxCell>
                <mxCell id="9" value="Actor" style="shape=umlActor;verticalLabelPosition=bottom;verticalAlign=top;html=1;outlineConnect=0;" vertex="1" parent="1">
                    <mxGeometry x="185" y="140" width="30" height="40" as="geometry"/>
                </mxCell>
                <mxCell id="10" value="" style="endArrow=classic;startArrow=classic;html=1;exitX=0.5;exitY=0;exitDx=0;exitDy=0;" edge="1" parent="1" source="2" target="9">
                    <mxGeometry width="50" height="50" relative="1" as="geometry">
                        <mxPoint x="420" y="320" as="sourcePoint"/>
                        <mxPoint x="470" y="270" as="targetPoint"/>
                    </mxGeometry>
                </mxCell>
                <UserObject label="porta 8080" placeholders="1" name="Variable" id="11">
                    <mxCell style="text;html=1;strokeColor=none;fillColor=none;align=center;verticalAlign=middle;whiteSpace=wrap;overflow=hidden;" vertex="1" parent="1">
                        <mxGeometry x="215" y="210" width="80" height="20" as="geometry"/>
                    </mxCell>
                </UserObject>
                <mxCell id="12" value="" style="endArrow=classic;startArrow=classic;html=1;exitX=1;exitY=0.5;exitDx=0;exitDy=0;entryX=0;entryY=0.5;entryDx=0;entryDy=0;" edge="1" parent="1" source="2" target="5">
                    <mxGeometry width="50" height="50" relative="1" as="geometry">
                        <mxPoint x="420" y="420" as="sourcePoint"/>
                        <mxPoint x="470" y="370" as="targetPoint"/>
                    </mxGeometry>
                </mxCell>
                <mxCell id="13" value="wordpress_net" style="edgeLabel;html=1;align=center;verticalAlign=middle;resizable=0;points=[];" vertex="1" connectable="0" parent="12">
                    <mxGeometry x="0.2775" y="3" relative="1" as="geometry">
                        <mxPoint as="offset"/>
                    </mxGeometry>
                </mxCell>
            </root>
        </mxGraphModel>
    </diagram>
</mxfile>